<svg id="Layer_1" data-name="Layer 1" xmlns="http://www.w3.org/2000/svg" xmlns:xlink="http://www.w3.org/1999/xlink" viewBox="0 0 725 473.4"><defs><style>.cls-1{fill:url(#linear-gradient);}.cls-2{fill:url(#linear-gradient-2);}.cls-3{fill:#263a1e;opacity:0.26;}.cls-4{fill:url(#linear-gradient-3);}.cls-5{font-size:100px;font-family:SmoothCirculars, Smooth Circulars;}.cls-6{fill:none;}</style><linearGradient id="linear-gradient" x1="206.5" y1="150.02" x2="422.86" y2="150.02" gradientTransform="matrix(1, 0, 0, -1, 0, 300)" gradientUnits="userSpaceOnUse"><stop offset="0" stop-color="#158585"/><stop offset="0.18" stop-color="#408a8a"/><stop offset="0.46" stop-color="#799090"/><stop offset="0.69" stop-color="#a49595"/><stop offset="0.88" stop-color="#bd9898"/><stop offset="0.99" stop-color="#c79999"/></linearGradient><linearGradient id="linear-gradient-2" x1="506.5" y1="150" x2="244" y2="150" gradientTransform="matrix(1, 0, 0, -1, 0, 300)" gradientUnits="userSpaceOnUse"><stop offset="0" stop-color="#158585"/><stop offset="1" stop-color="#db8995"/></linearGradient><linearGradient id="linear-gradient-3" x1="467.76" y1="385.7" x2="555.26" y2="385.7" gradientUnits="userSpaceOnUse"><stop offset="0" stop-color="#158585"/><stop offset="0.99" stop-color="#db8995"/></linearGradient></defs><path class="cls-1" d="M446.5,30a150,150,0,1,0-92.9,270A112.49,112.49,0,0,1,354.32,75c.72,0,1.45,0,2.18,0s1.46,0,2.18,0a75,75,0,0,1,72.82,75V75A74.62,74.62,0,0,1,446.5,30Z"/><path class="cls-2" d="M506.5,150V0a75,75,0,0,0-75,75v75a75,75,0,1,1-145.6-25.35h0A75,75,0,0,1,354.32,75c-.88,0-1.76,0-2.64.08h-.3q-1.31.06-2.61.15h-.19c-.93.07-1.85.14-2.77.23s-1.87.19-2.8.3c-.75.09-1.5.18-2.25.29-.32,0-.63.08-.95.14-.61.09-1.22.18-1.83.29a5,5,0,0,0-.66.11c-.68.11-1.36.23-2,.37-.31,0-.61.1-.91.17l-1.4.29-1.43.31-1.47.35-1.05.25c-.67.17-1.34.34-2,.53l-.59.16c-.46.12-.92.25-1.37.39s-1.18.34-1.77.53l-.7.22c-.58.17-1.15.36-1.73.56l-1.21.41-1.26.44-1.32.49c-.46.17-.92.34-1.38.53s-.64.24-1,.38c-.56.21-1.12.44-1.67.68l-.78.33c-.57.24-1.14.49-1.7.75s-1.36.61-2,.93l-1.81.88-.6.29c-.61.31-1.21.61-1.81.93l-.54.29c-.71.37-1.41.75-2.11,1.15l-.05,0-1.68,1-1.17.69-1.49.91-.59.37-1.23.79c-.54.35-1.08.7-1.62,1.07q-.24.15-.48.33c-.47.31-.94.63-1.4,1s-.82.57-1.23.87l-.72.53-1.56,1.16-.55.43c-.45.34-.89.68-1.33,1s-.64.5-.95.76-.83.67-1.24,1c-.58.49-1.17,1-1.75,1.5s-.92.8-1.38,1.22l-.65.59q-.63.56-1.23,1.14l-.84.8c-.3.28-.61.58-.9.88s-.74.72-1.1,1.09c-.59.6-1.18,1.21-1.76,1.82s-.91,1-1.36,1.46l-.23.25c-.58.64-1.16,1.3-1.73,2-.43.49-.86,1-1.27,1.49-.28.33-.56.67-.83,1-.53.65-1.06,1.3-1.57,2q-.51.65-1,1.29l-.61.8c-.37.5-.74,1-1.1,1.51l-.42.59c-.49.69-1,1.38-1.43,2.07s-1,1.5-1.49,2.26c-.36.56-.71,1.12-1.06,1.69-.22.34-.43.69-.63,1-.38.64-.76,1.28-1.13,1.92s-.71,1.26-1.06,1.89c-.54,1-1.08,2-1.59,3-.33.64-.65,1.29-1,1.93-.09.18-.18.36-.26.54-.38.78-.74,1.56-1.09,2.34q-1.16,2.49-2.14,5.05t-1.89,5.16A112.55,112.55,0,0,0,353.6,300c1,0,1.93,0,2.9,0s1.94,0,2.9,0A150,150,0,0,0,506.5,150Z"/><path class="cls-3" d="M258.92,194.93a104.63,104.63,0,0,1,27-70.28h0A75,75,0,0,1,354.32,75c-.88,0-1.76,0-2.64.08h-.3q-1.31.06-2.61.15h-.19c-.93.07-1.85.14-2.77.23s-1.87.19-2.8.3c-.75.09-1.5.18-2.25.29-.32,0-.63.08-.95.14-.61.09-1.22.18-1.83.29a5,5,0,0,0-.66.11c-.68.11-1.36.23-2,.37-.31,0-.61.1-.91.17l-1.4.29-1.43.31-1.47.35-1.05.25c-.67.17-1.34.34-2,.53l-.59.16c-.46.12-.92.25-1.37.39s-1.18.34-1.77.53l-.7.22c-.58.17-1.15.36-1.73.56l-1.21.41-1.26.44-1.32.49c-.46.17-.92.34-1.38.53s-.64.24-1,.38c-.56.21-1.12.44-1.67.68l-.78.33c-.57.24-1.14.49-1.7.75s-1.36.61-2,.93l-1.81.88-.6.29c-.61.31-1.21.61-1.81.93l-.54.29c-.71.37-1.41.75-2.11,1.15l-.05,0-1.68,1-1.17.69-1.49.91-.59.37-1.23.79c-.54.35-1.08.7-1.62,1.07q-.24.15-.48.33c-.47.31-.94.63-1.4,1s-.82.57-1.23.87l-.72.53-1.56,1.16-.55.43c-.45.34-.89.68-1.33,1s-.64.5-.95.76-.83.67-1.24,1c-.58.49-1.17,1-1.75,1.5s-.92.8-1.38,1.22l-.65.59q-.63.56-1.23,1.14l-.84.8c-.3.28-.61.58-.9.88s-.74.72-1.1,1.09c-.59.6-1.18,1.21-1.76,1.82s-.91,1-1.36,1.46l-.23.25c-.58.64-1.16,1.3-1.73,2-.43.49-.86,1-1.27,1.49-.28.33-.56.67-.83,1-.53.65-1.06,1.3-1.57,2q-.51.65-1,1.29l-.61.8c-.37.5-.74,1-1.1,1.51l-.42.59c-.49.69-1,1.38-1.43,2.07s-1,1.5-1.49,2.26c-.36.56-.71,1.12-1.06,1.69-.22.34-.43.69-.63,1-.38.64-.76,1.28-1.13,1.92s-.71,1.26-1.06,1.89c-.54,1-1.08,2-1.59,3-.33.64-.65,1.29-1,1.93-.09.18-.18.36-.26.54-.38.78-.74,1.56-1.09,2.34q-1.14,2.49-2.14,5.05t-1.89,5.16A112.57,112.57,0,0,0,356.5,300c1.27,0,2.53,0,3.79-.07A105,105,0,0,1,258.92,194.93Z"/><path class="cls-4" d="M555.26,385.7a43.49,43.49,0,1,1-18.75-36V342h18.75Zm-26.08,17.68a25,25,0,1,0-17.67,7.32A24.09,24.09,0,0,0,529.18,403.38Z"/><text class="cls-5" transform="translate(0 429.45)">a<tspan x="100" y="0">nym</tspan><tspan class="cls-6" x="468.75" y="0">a</tspan><tspan x="568.75" y="0">te</tspan></text></svg>