<?xml version="1.0" encoding="UTF-8"?><svg id="Layer_1" xmlns="http://www.w3.org/2000/svg" xmlns:xlink="http://www.w3.org/1999/xlink" viewBox="0 0 839.42 300"><defs><style>.cls-1{fill:url(#linear-gradient-2);}.cls-2,.cls-3{isolation:isolate;}.cls-3{fill:#263a1e;opacity:.26;}.cls-4{fill:url(#linear-gradient-3);}.cls-5{fill:#7a7a7a;}.cls-6{fill:url(#linear-gradient);}</style><linearGradient id="linear-gradient" x1="0" y1="332.83" x2="216.36" y2="332.83" gradientTransform="translate(0 -182.81)" gradientUnits="userSpaceOnUse"><stop offset="0" stop-color="#158585"/><stop offset=".99" stop-color="#db8995"/></linearGradient><linearGradient id="linear-gradient-2" x1="300" y1="332.81" x2="37.5" y2="332.81" gradientTransform="translate(0 -182.81)" gradientUnits="userSpaceOnUse"><stop offset="0" stop-color="#158585"/><stop offset="1" stop-color="#db8995"/></linearGradient><linearGradient id="linear-gradient-3" x1="654.45" y1="143.49" x2="717.45" y2="143.49" gradientTransform="translate(0 299.53) scale(1 -1)" gradientUnits="userSpaceOnUse"><stop offset="0" stop-color="#158585"/><stop offset="1" stop-color="#db8995"/></linearGradient></defs><path class="cls-6" d="M240,30.04C214.94,11.2,183.77,.04,150,.04,67.16,.04,0,67.2,0,150.04s65.6,148.41,147.1,149.96c-60.79-1.54-109.6-51.3-109.6-112.46s49.19-111.32,110.32-112.47c.72-.02,1.45-.03,2.18-.03s1.46,.01,2.18,.03c40.41,1.15,72.82,34.28,72.82,74.97V75.04c0-16.89,5.58-32.47,15-45Z"/><path class="cls-1" d="M300,150V0C275.47,0,253.68,11.78,240,30c-9.42,12.53-15,28.11-15,45v75c0,41.42-33.58,75-75,75s-75-33.58-75-75c0-8.9,1.55-17.43,4.4-25.35h0c10.16-28.3,36.85-48.72,68.42-49.62-.88,.02-1.76,.04-2.64,.08-.1,0-.2,0-.3,.01-.87,.04-1.74,.09-2.61,.15-.07,0-.13,0-.19,.01-.93,.07-1.85,.14-2.77,.23-.94,.09-1.87,.19-2.8,.3-.75,.09-1.5,.18-2.25,.29-.32,.04-.63,.08-.95,.14-.61,.09-1.22,.18-1.83,.29-.22,.02-.44,.06-.66,.11-.68,.11-1.36,.23-2.03,.37-.31,.05-.61,.1-.91,.17-.47,.09-.94,.19-1.4,.29-.48,.1-.96,.2-1.43,.31-.49,.11-.98,.23-1.47,.35-.35,.08-.7,.16-1.05,.25-.67,.17-1.34,.34-2.01,.53-.2,.05-.4,.1-.59,.16-.46,.12-.92,.25-1.37,.39-.59,.17-1.18,.34-1.77,.53-.23,.07-.47,.14-.7,.22-.58,.17-1.15,.36-1.73,.56-.4,.13-.81,.27-1.21,.41-.42,.14-.84,.29-1.26,.44-.44,.16-.88,.32-1.32,.49-.46,.17-.92,.34-1.38,.53-.32,.12-.64,.24-.96,.38-.56,.21-1.12,.44-1.67,.68l-.78,.33c-.57,.24-1.14,.49-1.7,.75-.68,.3-1.36,.61-2.04,.93-.61,.29-1.21,.58-1.81,.88-.2,.09-.4,.19-.6,.29-.61,.31-1.21,.61-1.81,.93-.18,.09-.36,.19-.54,.29-.71,.37-1.41,.75-2.11,1.15-.02,.01-.03,.01-.05,.02l-1.68,.96-1.17,.69c-.5,.3-1,.61-1.49,.91-.2,.13-.39,.25-.59,.37-.41,.26-.82,.52-1.23,.79-.54,.35-1.08,.7-1.62,1.07-.16,.1-.32,.21-.48,.33-.47,.31-.94,.63-1.4,.96-.41,.28-.82,.57-1.23,.87-.24,.18-.48,.35-.72,.53-.52,.38-1.04,.77-1.56,1.16-.18,.14-.37,.28-.55,.43-.45,.34-.89,.68-1.33,1.04-.32,.24-.64,.5-.95,.76-.42,.33-.83,.67-1.24,1.02-.58,.49-1.17,.99-1.75,1.5-.46,.39-.92,.8-1.38,1.22-.21,.19-.43,.39-.65,.59-.42,.37-.83,.75-1.23,1.14-.28,.26-.56,.53-.84,.8-.3,.28-.61,.58-.9,.88-.37,.36-.74,.72-1.1,1.09-.59,.6-1.18,1.21-1.76,1.82-.46,.48-.91,.97-1.36,1.46-.07,.08-.15,.17-.23,.25-.58,.64-1.16,1.3-1.73,1.96-.43,.49-.86,.99-1.27,1.49-.28,.33-.56,.67-.83,1.01-.53,.65-1.06,1.3-1.57,1.96-.34,.43-.67,.86-.99,1.29-.2,.27-.4,.53-.61,.8-.37,.5-.74,1-1.1,1.51-.14,.2-.28,.4-.42,.59-.49,.69-.96,1.38-1.43,2.07-.51,.75-1,1.5-1.49,2.26-.36,.56-.71,1.12-1.06,1.69-.22,.34-.43,.69-.63,1.03-.38,.64-.76,1.28-1.13,1.92-.36,.63-.71,1.26-1.06,1.89-.54,.99-1.08,1.99-1.59,3-.33,.64-.65,1.29-.96,1.93-.09,.18-.18,.36-.26,.54-.38,.78-.74,1.56-1.09,2.34-.77,1.66-1.48,3.34-2.14,5.05-.68,1.7-1.31,3.42-1.89,5.16-3.85,11.33-5.93,23.47-5.93,36.1,0,61.16,48.81,110.92,109.6,112.46,.96,.03,1.93,.04,2.9,.04s1.94-.01,2.9-.04c32.65-.62,62.74-11.67,87.09-29.97,36.44-27.35,60.01-70.92,60.01-119.99h0Z"/><path class="cls-3" d="M52.42,194.97c0-27.03,10.21-51.67,26.98-70.28h0c10.16-28.3,36.85-48.72,68.42-49.62-.88,.02-1.76,.04-2.64,.08-.1,0-.2,0-.3,.01-.87,.04-1.74,.09-2.61,.15-.07,0-.13,0-.19,.01-.93,.07-1.85,.14-2.77,.23-.94,.09-1.87,.19-2.8,.3-.75,.09-1.5,.18-2.25,.29-.32,.04-.63,.08-.95,.14-.61,.09-1.22,.18-1.83,.29-.22,.02-.44,.06-.66,.11-.68,.11-1.36,.23-2.03,.37-.31,.05-.61,.1-.91,.17-.47,.09-.94,.19-1.4,.29-.48,.1-.96,.2-1.43,.31-.49,.11-.98,.23-1.47,.35-.35,.08-.7,.16-1.05,.25-.67,.17-1.34,.34-2.01,.53-.2,.05-.4,.1-.59,.16-.46,.12-.92,.25-1.37,.39-.59,.17-1.18,.34-1.77,.53-.23,.07-.47,.14-.7,.22-.58,.17-1.15,.36-1.73,.56-.4,.13-.81,.27-1.21,.41-.42,.14-.84,.29-1.26,.44-.44,.16-.88,.32-1.32,.49-.46,.17-.92,.34-1.38,.53-.32,.12-.64,.24-.96,.38-.56,.21-1.12,.44-1.67,.68l-.78,.33c-.57,.24-1.14,.49-1.7,.75-.68,.3-1.36,.61-2.04,.93-.61,.29-1.21,.58-1.81,.88-.2,.09-.4,.19-.6,.29-.61,.31-1.21,.61-1.81,.93-.18,.09-.36,.19-.54,.29-.71,.37-1.41,.75-2.11,1.15-.02,.01-.03,.01-.05,.02l-1.68,.96-1.17,.69c-.5,.3-1,.61-1.49,.91-.2,.13-.39,.25-.59,.37-.41,.26-.82,.52-1.23,.79-.54,.35-1.08,.7-1.62,1.07-.16,.1-.32,.21-.48,.33-.47,.31-.94,.63-1.4,.96-.41,.28-.82,.57-1.23,.87-.24,.18-.48,.35-.72,.53-.52,.38-1.04,.77-1.56,1.16-.18,.14-.37,.28-.55,.43-.45,.34-.89,.68-1.33,1.04-.32,.24-.64,.5-.95,.76-.42,.33-.83,.67-1.24,1.02-.58,.49-1.17,.99-1.75,1.5-.46,.39-.92,.8-1.38,1.22-.21,.19-.43,.39-.65,.59-.42,.37-.83,.75-1.23,1.14-.28,.26-.56,.53-.84,.8-.3,.28-.61,.58-.9,.88-.37,.36-.74,.72-1.1,1.09-.59,.6-1.18,1.21-1.76,1.82-.46,.48-.91,.97-1.36,1.46-.07,.08-.15,.17-.23,.25-.58,.64-1.16,1.3-1.73,1.96-.43,.49-.86,.99-1.27,1.49-.28,.33-.56,.67-.83,1.01-.53,.65-1.06,1.3-1.57,1.96-.34,.43-.67,.86-.99,1.29-.2,.27-.4,.53-.61,.8-.37,.5-.74,1-1.1,1.51-.14,.2-.28,.4-.42,.59-.49,.69-.96,1.38-1.43,2.07-.51,.75-1,1.5-1.49,2.26-.36,.56-.71,1.12-1.06,1.69-.22,.34-.43,.69-.63,1.03-.38,.64-.76,1.28-1.13,1.92-.36,.63-.71,1.26-1.06,1.89-.54,.99-1.08,1.99-1.59,3-.33,.64-.65,1.29-.96,1.93-.09,.18-.18,.36-.26,.54-.38,.78-.74,1.56-1.09,2.34-.76,1.66-1.47,3.34-2.14,5.05-.67,1.7-1.3,3.42-1.89,5.16-3.83,11.33-5.91,23.46-5.91,36.08,0,62.12,50.36,112.48,112.48,112.48,1.27,0,2.53-.03,3.79-.07-56.31-1.93-101.37-48.18-101.37-104.96h0Z"/><g class="cls-2" transform="translate(317.42 187.53)"><g class="cls-2"><path class="cls-5" d="M380.42,156.03c0,8.72-3.07,16.15-9.21,22.29-6.14,6.14-13.57,9.21-22.29,9.21s-16.15-3.07-22.29-9.21c-6.14-6.14-9.21-13.57-9.21-22.29s3.07-16.15,9.21-22.29c6.14-6.14,13.57-9.21,22.29-9.21,6.8,0,12.8,1.85,18,5.55v-5.55h13.5v31.5Zm-18.77,12.73c3.52-3.52,5.27-7.76,5.27-12.73s-1.76-9.21-5.27-12.73-7.76-5.27-12.73-5.27-9.21,1.76-12.73,5.27-5.27,7.76-5.27,12.73,1.76,9.21,5.27,12.73,7.76,5.27,12.73,5.27,9.21-1.76,12.73-5.27Z"/><path class="cls-5" d="M402.92,187.53h-13.5v-31.5c0-8.72,3.07-16.15,9.21-22.29,6.14-6.14,13.57-9.21,22.29-9.21s16.15,3.07,22.29,9.21c6.14,6.14,9.21,13.57,9.21,22.29v31.5h-13.5v-31.5c0-4.97-1.76-9.21-5.27-12.73s-7.76-5.27-12.73-5.27-9.21,1.76-12.73,5.27-5.27,7.76-5.27,12.73v31.5Z"/><path class="cls-5" d="M461.42,156.03v-31.5h13.5v31.5c0,4.97,1.76,9.21,5.27,12.73s7.76,5.27,12.73,5.27,9.21-1.76,12.73-5.27,5.27-7.76,5.27-12.73v-31.5h13.5v63c0,8.72-3.07,16.15-9.21,22.29-6.14,6.14-13.57,9.21-22.29,9.21v-13.5c4.97,0,9.21-1.76,12.73-5.27s5.27-7.76,5.27-12.73v-5.55c-5.2,3.7-11.2,5.55-18,5.55-8.72,0-16.15-3.07-22.29-9.21-6.14-6.14-9.21-13.57-9.21-22.29Z"/><path class="cls-5" d="M582.92,156.03c0-4.97-1.76-9.21-5.27-12.73s-7.76-5.27-12.73-5.27-9.21,1.76-12.73,5.27-5.27,7.76-5.27,12.73v31.5h-13.5v-31.5c0-8.72,3.07-16.15,9.21-22.29s13.57-9.21,22.29-9.21,16.15,3.07,22.29,9.21c.89,.89,1.71,1.8,2.46,2.74,.75-.94,1.57-1.85,2.46-2.74,6.14-6.14,13.57-9.21,22.29-9.21s16.15,3.07,22.29,9.21c6.14,6.14,9.21,13.57,9.21,22.29v31.5h-13.5v-31.5c0-4.97-1.76-9.21-5.27-12.73s-7.76-5.27-12.73-5.27-9.21,1.76-12.73,5.27-5.27,7.76-5.27,12.73v31.5h-13.5v-31.5Z"/><path class="cls-5" d="M717.92,156.03c0,8.72-3.07,16.15-9.21,22.29-6.14,6.14-13.57,9.21-22.29,9.21s-16.15-3.07-22.29-9.21c-6.14-6.14-9.21-13.57-9.21-22.29s3.07-16.15,9.21-22.29,13.57-9.21,22.29-9.21c6.8,0,12.8,1.85,18,5.55v-5.55h13.5v31.5Zm-18.77,12.73c3.52-3.52,5.27-7.76,5.27-12.73s-1.76-9.21-5.27-12.73-7.76-5.27-12.73-5.27-9.21,1.76-12.73,5.27-5.27,7.76-5.27,12.73,1.76,9.21,5.27,12.73,7.76,5.27,12.73,5.27,9.21-1.76,12.73-5.27Z"/><path class="cls-5" d="M740.42,138.03v18c0,4.97,1.76,9.21,5.27,12.73s7.76,5.27,12.73,5.27v13.5c-8.72,0-16.15-3.07-22.29-9.21-6.14-6.14-9.21-13.57-9.21-22.29v-49.5h13.5v18h18v13.5h-18Z"/><path class="cls-5" d="M786.19,168.76c3.52,3.52,7.76,5.27,12.73,5.27s9.21-1.76,12.73-5.27l.07-.07,9.56,9.56-.07,.07c-6.14,6.14-13.57,9.21-22.29,9.21s-16.15-3.07-22.29-9.21c-6.14-6.14-9.21-13.57-9.21-22.29s3.07-16.15,9.21-22.29,13.57-9.21,22.29-9.21,16.15,3.07,22.29,9.21c6.14,6.14,9.21,13.57,9.21,22.29,0,1.5-.14,3-.42,4.5h-48.52c.75,3.09,2.32,5.84,4.71,8.23Zm25.45-25.45c-3.52-3.52-7.76-5.27-12.73-5.27s-9.21,1.76-12.73,5.27c-1.17,1.17-2.13,2.42-2.88,3.73h31.22c-.75-1.31-1.71-2.55-2.88-3.73Z"/></g></g><path class="cls-4" d="M717.45,156.04c0,8.72-3.07,16.15-9.21,22.29s-13.57,9.21-22.29,9.21-16.15-3.07-22.29-9.21c-6.14-6.14-9.21-13.57-9.21-22.29s3.07-16.15,9.21-22.29,13.57-9.21,22.29-9.21c6.8,0,12.8,1.85,18,5.55v-5.55h13.5v31.5h0Zm-18.77,12.73c3.52-3.52,5.27-7.76,5.27-12.73s-1.76-9.21-5.27-12.73-7.76-5.27-12.73-5.27-9.21,1.76-12.73,5.27-5.27,7.76-5.27,12.73,1.76,9.21,5.27,12.73,7.76,5.27,12.73,5.27,9.21-1.76,12.73-5.27Z"/></svg>